<svg id="visual" viewBox="0 0 960 540" width="960" height="540" xmlns="http://www.w3.org/2000/svg" xmlns:xlink="http://www.w3.org/1999/xlink" version="1.1"><rect x="0" y="0" width="960" height="540" fill="#fff"></rect><path d="M0 452L22.8 447.5C45.7 443 91.3 434 137 433.3C182.7 432.7 228.3 440.3 274 439.3C319.7 438.3 365.3 428.7 411.2 429.8C457 431 503 443 548.8 446.5C594.7 450 640.3 445 686 440.5C731.7 436 777.3 432 823 427.7C868.7 423.3 914.3 418.7 937.2 416.3L960 414L960 541L937.2 541C914.3 541 868.7 541 823 541C777.3 541 731.7 541 686 541C640.3 541 594.7 541 548.8 541C503 541 457 541 411.2 541C365.3 541 319.7 541 274 541C228.3 541 182.7 541 137 541C91.3 541 45.7 541 22.8 541L0 541Z" fill="#db2870"></path><path d="M0 458L22.8 460.7C45.7 463.3 91.3 468.7 137 468.2C182.7 467.7 228.3 461.3 274 462.5C319.7 463.7 365.3 472.3 411.2 475.8C457 479.3 503 477.7 548.8 478.2C594.7 478.7 640.3 481.3 686 481.5C731.7 481.7 777.3 479.3 823 476.7C868.7 474 914.3 471 937.2 469.5L960 468L960 541L937.2 541C914.3 541 868.7 541 823 541C777.3 541 731.7 541 686 541C640.3 541 594.7 541 548.8 541C503 541 457 541 411.2 541C365.3 541 319.7 541 274 541C228.3 541 182.7 541 137 541C91.3 541 45.7 541 22.8 541L0 541Z" fill="#ee3f54"></path><path d="M0 508L22.8 504.3C45.7 500.7 91.3 493.3 137 493C182.7 492.7 228.3 499.3 274 503.2C319.7 507 365.3 508 411.2 505.3C457 502.7 503 496.3 548.8 495C594.7 493.7 640.3 497.3 686 500.3C731.7 503.3 777.3 505.7 823 507C868.7 508.3 914.3 508.7 937.2 508.8L960 509L960 541L937.2 541C914.3 541 868.7 541 823 541C777.3 541 731.7 541 686 541C640.3 541 594.7 541 548.8 541C503 541 457 541 411.2 541C365.3 541 319.7 541 274 541C228.3 541 182.7 541 137 541C91.3 541 45.7 541 22.8 541L0 541Z" fill="#f46036"></path></svg>