<svg id="visual" viewBox="0 0 900 450" width="900" height="450" xmlns="http://www.w3.org/2000/svg" xmlns:xlink="http://www.w3.org/1999/xlink" version="1.1"><rect x="0" y="0" width="900" height="450" fill="#fff"></rect><path d="M0 377L21.5 373.2C43 369.3 86 361.7 128.8 361C171.7 360.3 214.3 366.7 257.2 365.8C300 365 343 357 385.8 358C428.7 359 471.3 369 514.2 372C557 375 600 371 642.8 367.2C685.7 363.3 728.3 359.7 771.2 355.8C814 352 857 348 878.5 346L900 344L900 451L878.5 451C857 451 814 451 771.2 451C728.3 451 685.7 451 642.8 451C600 451 557 451 514.2 451C471.3 451 428.7 451 385.8 451C343 451 300 451 257.2 451C214.3 451 171.7 451 128.8 451C86 451 43 451 21.5 451L0 451Z" fill="#db2870"></path><path d="M0 381L21.5 383.3C43 385.7 86 390.3 128.8 390C171.7 389.7 214.3 384.3 257.2 385.3C300 386.3 343 393.7 385.8 396.7C428.7 399.7 471.3 398.3 514.2 398.7C557 399 600 401 642.8 401C685.7 401 728.3 399 771.2 396.8C814 394.7 857 392.3 878.5 391.2L900 390L900 451L878.5 451C857 451 814 451 771.2 451C728.3 451 685.7 451 642.8 451C600 451 557 451 514.2 451C471.3 451 428.7 451 385.8 451C343 451 300 451 257.2 451C214.3 451 171.7 451 128.8 451C86 451 43 451 21.5 451L0 451Z" fill="#ee3f54"></path><path d="M0 423L21.5 420C43 417 86 411 128.8 410.8C171.7 410.7 214.3 416.3 257.2 419.5C300 422.7 343 423.3 385.8 421C428.7 418.7 471.3 413.3 514.2 412.2C557 411 600 414 642.8 416.5C685.7 419 728.3 421 771.2 422.2C814 423.3 857 423.7 878.5 423.8L900 424L900 451L878.5 451C857 451 814 451 771.2 451C728.3 451 685.7 451 642.8 451C600 451 557 451 514.2 451C471.3 451 428.7 451 385.8 451C343 451 300 451 257.2 451C214.3 451 171.7 451 128.8 451C86 451 43 451 21.5 451L0 451Z" fill="#f46036"></path></svg>