<svg id="visual" viewBox="0 0 900 600" width="900" height="600" xmlns="http://www.w3.org/2000/svg" xmlns:xlink="http://www.w3.org/1999/xlink" version="1.1"><rect x="0" y="0" width="900" height="600" fill="#fff"></rect><path d="M0 503L21.5 498C43 493 86 483 128.8 482C171.7 481 214.3 489 257.2 487.7C300 486.3 343 475.7 385.8 477C428.7 478.3 471.3 491.7 514.2 495.7C557 499.7 600 494.3 642.8 489.3C685.7 484.3 728.3 479.7 771.2 474.8C814 470 857 465 878.5 462.5L900 460L900 601L878.5 601C857 601 814 601 771.2 601C728.3 601 685.7 601 642.8 601C600 601 557 601 514.2 601C471.3 601 428.7 601 385.8 601C343 601 300 601 257.2 601C214.3 601 171.7 601 128.8 601C86 601 43 601 21.5 601L0 601Z" fill="#db2870"></path><path d="M0 509L21.5 512C43 515 86 521 128.8 520.5C171.7 520 214.3 513 257.2 514.3C300 515.7 343 525.3 385.8 529.2C428.7 533 471.3 531 514.2 531.5C557 532 600 535 642.8 535.2C685.7 535.3 728.3 532.7 771.2 529.7C814 526.7 857 523.3 878.5 521.7L900 520L900 601L878.5 601C857 601 814 601 771.2 601C728.3 601 685.7 601 642.8 601C600 601 557 601 514.2 601C471.3 601 428.7 601 385.8 601C343 601 300 601 257.2 601C214.3 601 171.7 601 128.8 601C86 601 43 601 21.5 601L0 601Z" fill="#ee3f54"></path><path d="M0 565L21.5 560.8C43 556.7 86 548.3 128.8 548C171.7 547.7 214.3 555.3 257.2 559.7C300 564 343 565 385.8 561.8C428.7 558.7 471.3 551.3 514.2 549.8C557 548.3 600 552.7 642.8 556.2C685.7 559.7 728.3 562.3 771.2 563.7C814 565 857 565 878.5 565L900 565L900 601L878.5 601C857 601 814 601 771.2 601C728.3 601 685.7 601 642.8 601C600 601 557 601 514.2 601C471.3 601 428.7 601 385.8 601C343 601 300 601 257.2 601C214.3 601 171.7 601 128.8 601C86 601 43 601 21.5 601L0 601Z" fill="#f46036"></path></svg>